<?xml version="1.0" encoding="UTF-8"?>
<svg version="1.1" xmlns="http://www.w3.org/2000/svg" xmlns:xlink="http://www.w3.org/1999/xlink" x="0px" y="0px" width="40px" height="40px" viewBox="0 0 400 400" enable-background="new 0 0 400 400" xml:space="preserve" fill="#d3a478">
<g>
	<path d="M200.8,267.3c0.1,0,0.2,0,0.3,0c15.6-1.4,24.5-5.1,34.3-14.3c3.7-3.5,7.6-7.8,12.1-12.8c2.2-2.4,4.5-5,7.2-7.9   c7.7-8.3,13.1-24.6,16.5-37.9c1.2-0.1,2.3-0.3,3.5-0.7c6.6-2.5,12-11,13.7-21.7c2.3-13.9-2.7-25.9-11.3-27.2   c-1.4-0.2-2.8-0.2-4.1,0.2c-0.4-5.1-1.1-9.7-2-13.9c-0.6-2.8-1.2-5.5-2-8c-2,1.9-4,3.6-6.1,5c-6,4.1-12.2,6.2-18.8,6.2c0,0,0,0,0,0   c-13.4,0-27.7-8.3-41.4-16.3c-14.6-8.5-29.7-17.3-45.1-17.3c-0.9,0-1.8,0.1-2.7,0.1c-4.4,0.3-8.7,1.3-12.8,3.1   c-2.7,3.6-5,7.5-6.8,11.7c-0.2,0.5-0.4,1.1-0.6,1.7c-3,7.5-5,16.3-6,27.5c-1.4-0.3-2.8-0.4-4.1-0.2c-8.6,1.4-13.5,13.4-11.3,27.2   c1.7,10.7,7.1,19.2,13.7,21.7c1.2,0.5,2.3,0.7,3.5,0.8c3.4,13.3,8.8,29.6,16.5,37.9c2.6,2.8,5,5.4,7.1,7.8c4.5,5,8.4,9.3,12.1,12.8   c9.7,9.2,18.7,12.9,34.2,14.3C200.5,267.3,200.6,267.3,200.8,267.3z M159.5,235.4c-2.2-2.4-4.6-5.1-7.2-7.9   c-5.6-6.1-11.2-19.6-15.6-37.9c-0.2-1-0.9-1.9-1.8-2.3c-0.5-0.3-1.1-0.4-1.7-0.4c-0.4,0-0.8,0.1-1.3,0.2c-0.2,0.1-0.4,0.2-1,0.2   c-0.4,0-0.8-0.1-1.3-0.3c-3.5-1.3-7.7-7.3-9.1-16.1c-1.6-10.1,1.4-18.3,5.7-19c1,0,2.2,0.6,3.4,1.6c1.1,0.9,2.5,1.1,3.8,0.5   c1.3-0.6,2.1-1.8,2.2-3.1c0.7-13.7,2.8-24.2,6.4-32.3c1.3-3.1,2.9-6,4.8-8.7c3.5-1.3,7.1-2,10.8-2c13.4,0,27.7,8.3,41.4,16.3   c14.6,8.5,29.7,17.3,45.1,17.3c0,0,0,0,0,0c7.2,0,14-2,20.4-5.9c0.8,4.6,1.3,9.6,1.6,15.2c0.1,1.4,0.9,2.6,2.2,3.1   c1.3,0.5,2.7,0.3,3.8-0.5c1.3-1,2.4-1.6,3.9-1.6c3.8,0.6,6.9,8.9,5.3,18.9c-1.4,8.8-5.7,14.8-9.2,16.1c-0.4,0.2-0.9,0.3-1.7,0.2   c-0.2,0-0.4-0.1-0.6-0.2c-1-0.4-2.1-0.3-3,0.2c-0.9,0.5-1.6,1.3-1.8,2.3c-4.4,18.4-9.9,31.8-15.6,37.9c-2.6,2.9-5,5.5-7.2,7.9   c-4.6,5.1-8.2,9.1-11.7,12.3c-7.5,7.1-14.1,10.9-29.6,12.3c-15.5-1.4-22.1-5.2-29.6-12.3C167.7,244.5,164,240.5,159.5,235.4z"/>
	<path d="M295.6,301.4l-1.2-0.6c-3.2-1.7-4.5-2.3-10-5l-3.8-1.8L258.5,367H143.1l-21.2-73.6l-3.9,1.9c-6.1,3-7.9,3.9-12.1,6.1   c-1.7,0.9-3.2,1.7-4.8,2.6l-1.9,1.1l5.8,91.2l146.5-0.1l0,0.1h45l5.8-91.2l-1.9-1.1C298.9,303.2,297.4,302.3,295.6,301.4z    M289.7,389.1h-29.1l0-0.1l-148.9,0.1l-5.1-79.9c0.8-0.5,1.7-0.9,2.6-1.4c3-1.6,4.8-2.5,8-4l20.4,70.5h126.2l21.2-70.2   c2.5,1.2,3.8,1.9,6,3.1l1.3,0.7c0.9,0.5,1.7,0.9,2.5,1.3L289.7,389.1z"/>
	<path d="M200.8,349.5c-2.6,0-4.7,2.1-4.7,4.7c0,2.6,2.1,4.7,4.7,4.7c2.6,0,4.7-2.1,4.7-4.7C205.5,351.6,203.4,349.5,200.8,349.5z"/>
	<path d="M200.8,325.5c-2.6,0-4.7,2.1-4.7,4.7c0,2.6,2.1,4.7,4.7,4.7c2.6,0,4.7-2.1,4.7-4.7C205.5,327.6,203.4,325.5,200.8,325.5z"/>
	<path d="M132.3,52.3c0.5,2.2,1.4,4.3,2.7,6.2l7.8,17.6c0.8,1.7,2.7,2.6,4.4,2c18.4-6.1,33.2-8.5,51.2-8.5l2.4,0l2.4,0   c18,0,32.8,2.5,51.2,8.5c0.4,0.1,0.8,0.2,1.1,0.2c1.4,0,2.7-0.8,3.3-2.2l7.8-17.6c1.3-1.9,2.2-4.1,2.7-6.4c0.3-1.3,0.4-2.6,0.4-3.9   c0-10.3-8.4-18.7-18.7-18.7c-1.2,0-2.4,0.1-3.6,0.4c-2.5-8.7-10.5-14.9-19.8-14.9c-1.7,0-3.4,0.2-5,0.6c-5-7.1-13.1-11.3-21.8-11.3   c-8.7,0-16.8,4.3-21.8,11.3c-1.6-0.4-3.3-0.6-5.1-0.6c-9.3,0-17.3,6.3-19.8,14.9c-1.2-0.2-2.4-0.4-3.7-0.4   c-10.3,0-18.7,8.4-18.7,18.7c0,1.3,0.1,2.6,0.4,3.9C132.2,52.1,132.3,52.2,132.3,52.3z M150.5,36.7c1.7,0,3.3,0.4,4.9,1.2   c1.1,0.5,2.4,0.5,3.4-0.2c1-0.6,1.7-1.7,1.8-2.9c0.4-7.1,6.3-12.7,13.4-12.7c1.8,0,3.5,0.3,5.2,1c1.7,0.7,3.7,0,4.6-1.6   c3.5-6.3,10-10.2,17.1-10.2c7,0,13.6,3.9,17,10.2c0.9,1.6,2.9,2.3,4.6,1.6c1.7-0.7,3.4-1,5.2-1c7.1,0,12.9,5.6,13.3,12.7   c0.1,1.2,0.7,2.3,1.8,2.9c1,0.6,2.3,0.7,3.4,0.1c1.6-0.8,3.3-1.2,4.9-1.2c6.3,0,11.4,5.1,11.4,11.4c0,0.7-0.1,1.5-0.2,2.2   c0,0.1,0,0.2-0.1,0.2c-0.3,1.5-0.9,2.8-1.8,4.1c-0.1,0.2-0.3,0.4-0.3,0.6l-6.6,15c-17.7-5.6-32.5-7.9-50.3-7.9l-2.4,0l-2.4,0   c-17.8,0-32.6,2.3-50.3,7.9l-6.6-15c-0.1-0.2-0.2-0.4-0.4-0.6c-0.9-1.2-1.5-2.6-1.8-4.1c-0.2-0.8-0.3-1.6-0.3-2.4   C139,41.8,144.2,36.7,150.5,36.7z"/>
	<path d="M136.8,269.9c3.7,1.1,8.2,2,12.7,2.7c3.1-1.4,5.9-2.7,8.2-3.7c0-0.7,0-1.6,0-2.4c-6.3-0.8-13.6-1.9-19.1-3.5   c-46.9-9.3-41.6-45.1-30.9-116.4l1.9-12.9c2.5-28.9,11.4-49,22.9-62.9l-3.2-7.2c-13.4,14.9-24.1,36.9-26.9,69.2l-1.9,12.7   C89.9,216.4,83.5,259.3,136.8,269.9z"/>
	<path d="M292,133.7l1.9,12.7c10.6,71.3,16,107.1-31.3,116.5c-5.3,1.6-12.5,2.7-18.8,3.4c0,0.8,0,1.7,0,2.4c2.3,1,5.1,2.3,8.2,3.7   c4.4-0.7,8.8-1.5,12.3-2.6c53.7-10.7,47.3-53.5,36.7-124.6l-1.9-12.4c-2.8-32.5-13.5-54.5-27-69.4l-3.2,7.2   C280.5,84.6,289.5,104.7,292,133.7z"/>
	<path d="M272.3,300.1c1.6-4.7,0.5-9.2-2.8-11.7c-0.2-0.2-0.4-0.3-0.6-0.4c-2-1-33.8-16-33.8-16c-1.3-0.6-2.8-0.4-3.9,0.5L201,298.3   l-30.2-25.7c-1.1-0.9-2.6-1.1-3.9-0.5c0,0-31.7,15-33.8,16c-0.2,0.1-0.4,0.2-0.6,0.4c-3.3,2.5-4.4,7-2.8,11.7   c1.8,5.2,7,10.5,14.3,10.2c-0.4,3.1,0.3,6.3,1.8,9.2c3.5,6.4,11.2,9.2,17.3,6.5c0.8,2.9,2.1,4.8,3.3,6.2c2.4,2.6,5.7,4,9.4,4   c4.1,0,8.3-1.9,11.2-5c2-2.2,3.3-4.8,3.8-7.8c3.9,0,7.5-1.4,10.1-4.2c2.6,2.8,6.2,4.2,10.1,4.2c0.5,2.9,1.8,5.6,3.8,7.8   c2.9,3.1,7.1,5,11.2,5c3.7,0,7-1.4,9.4-4c1.2-1.3,2.5-3.3,3.3-6.2c6.1,2.7,13.8-0.1,17.3-6.5c1.6-2.9,2.2-6,1.8-9.2   c0.2,0,0.3,0,0.5,0C265.6,310.4,270.6,305.2,272.3,300.1z M197.4,311.6c-0.8,1.9-2.5,4.6-6.1,4.6c-0.9,0-1.8-0.1-2.8-0.4   c-1.1-0.3-2.4-0.1-3.3,0.7c-0.9,0.8-1.4,1.9-1.3,3.1c0.3,3.4-1,5.5-2.1,6.7c-1.5,1.7-3.7,2.7-5.9,2.7c-1.2,0-2.8-0.3-4.1-1.7   c-1.5-1.7-2.2-4.5-1.9-8.1c0.1-1.6-0.8-3.1-2.4-3.7c-1.5-0.6-3.2,0-4.2,1.3c-3.3,4.5-8.7,3.6-11.1-0.7c-0.9-1.6-2-5,0.6-9.1   c0.9-1.4,0.7-3.2-0.5-4.4c-1.1-1.2-3-1.5-4.4-0.6c-1.5,0.9-3,1.3-4.4,1.3c-3.5,0-6-2.8-6.9-5.3c-0.4-1.1-0.6-2.7,0.2-3.5   c3.6-1.7,24.4-11.6,31.2-14.8l29.5,25.1V311.6z M254.1,301.8c-1.4-0.8-3.3-0.6-4.4,0.6c-1.1,1.2-1.3,3-0.5,4.4   c2.6,4.2,1.5,7.5,0.6,9.1c-2.4,4.3-7.8,5.3-11.1,0.7c-1-1.3-2.7-1.9-4.2-1.3c-1.5,0.6-2.5,2.1-2.4,3.7c0.3,3.7-0.4,6.5-1.9,8.1   c-1.3,1.4-2.9,1.7-4.1,1.7c-2.1,0-4.3-1-5.9-2.7c-1.1-1.2-2.4-3.4-2.1-6.7c0.1-1.2-0.4-2.4-1.3-3.1c-0.7-0.5-1.5-0.8-2.3-0.8   c-0.3,0-0.7,0-1,0.1c-1,0.3-1.9,0.4-2.8,0.4c-3.6,0-5.4-2.7-6.1-4.6v-6.9l29.5-25.1c6.8,3.2,27.6,13.1,31.2,14.8   c0.7,0.8,0.5,2.3,0.2,3.5c-0.9,2.6-3.4,5.3-6.9,5.3C257.1,303.1,255.6,302.7,254.1,301.8z"/>
	<path d="M309.3,309.5l-0.5,8.4c17.7,13.2,17.6,24.8,17.3,43c0,2.4-0.1,4.9-0.1,7.6v20.6h-21.8l-0.5,7.2h25.8c2,0,3.6-1.6,3.6-3.6   v-24.2c0-2.6,0-5.1,0.1-7.5C333.6,340.5,333.8,326,309.3,309.5z"/>
	<path d="M75.5,389.1v-20.6c0-2.6,0-5.2-0.1-7.6c-0.3-18.2-0.4-29.8,17.3-43l-0.5-8.4c-24.5,16.5-24.3,31-24,51.6   c0,2.4,0.1,4.9,0.1,7.5v24.2c0,2,1.6,3.6,3.6,3.6h25.8l-0.5-7.2H75.5z"/>
</g>
</svg>