<?xml version="1.0" encoding="UTF-8"?>
<svg version="1.1" xmlns="http://www.w3.org/2000/svg" xmlns:xlink="http://www.w3.org/1999/xlink" x="0px" y="0px" width="40px" height="40px" viewBox="0 0 400 400" enable-background="new 0 0 400 400" xml:space="preserve" fill="#d3a478">
	 width="40px" height="40px" viewBox="0 0 400 400" enable-background="new 0 0 400 400" xml:space="preserve" fill="#d3a478"&gt;
<g>
	<rect x="63.3" y="326.3" width="196.8" height="6.6"/>
	<rect x="63.3" y="289.3" width="196.8" height="6.6"/>
	<path d="M71.9,261.5h175.4l6.6-5.9l37.6,2.7L284,131.4h-25.7c-0.5-0.3-1.1-0.4-1.7-0.4h-6.1v-19.7c1.8-0.4,3.6-1.2,5.4-2.3   c5.8-4.5,9.5-13,9.5-22.3c0-3.1-0.4-6.1-1.2-9l-0.7-2.7h-33.4l-0.7,2.7c-0.8,2.9-1.2,6-1.2,9c0,9.3,3.6,17.8,9.9,22.6   c1.7,1,3.3,1.6,5,2V131h-6.1c-0.6,0-1.2,0.2-1.7,0.4h-17.5c-0.5-0.3-1.1-0.4-1.7-0.4H210v-19.7c1.8-0.4,3.6-1.2,5.4-2.3   c5.8-4.5,9.5-13.1,9.5-22.3c0-3.1-0.4-6.1-1.2-9l-0.7-2.8h-33.4l-0.7,2.7c-0.8,2.9-1.2,6-1.2,9c0,9.3,3.6,17.8,9.9,22.6   c1.7,1,3.3,1.6,5,2V131h-6.1c-0.6,0-1.2,0.2-1.7,0.4h-13.4c0-0.1,0.1-0.3,0.1-0.4V65.8c0-4.8-1.9-9.4-5.3-13.1l-2.3-2.5   c-2.1-2.2-3.2-5-3.2-7.8l0-37.9H150v37.9c0,2.8-1.1,5.6-3.2,7.8l-2.3,2.5c-3.4,3.7-5.3,8.3-5.3,13.1v23c2.3,1.8,4.5,3.8,6.6,6v-29   c0-3.1,1.3-6.2,3.6-8.6l2.3-2.5c3.2-3.4,5-7.8,5-12.3V11h7.3l0,31.4c0,4.5,1.8,8.9,5,12.3l2.3,2.5c2.3,2.5,3.6,5.5,3.6,8.7V131   c0,0.1-0.2,0.3-0.3,0.4H155c-1.8-27-24.5-48.6-51.9-48.6c-27.4,0-50,21.5-51.9,48.6H39.4l-7.8,126.6h32.1L71.9,261.5z M242.2,103.1   c-4-3.1-6.6-9.5-6.6-16.4c0-1.4,0.1-2.9,0.3-4.3h21.6c0.2,1.4,0.3,2.9,0.3,4.3c0,6.9-2.6,13.3-6.3,16.2   C248.4,104.9,244.9,104.6,242.2,103.1z M201.6,103.1c-4-3.1-6.6-9.5-6.6-16.4c0-1.5,0.1-2.9,0.3-4.3H217c0.2,1.4,0.3,2.9,0.3,4.3   c0,6.9-2.6,13.3-6.3,16.2C207.8,104.9,204.4,104.6,201.6,103.1z M103.1,89.5c23.8,0,43.5,18.5,45.4,41.9l-90.8,0.1   C59.5,108,79.2,89.5,103.1,89.5z M45.5,138h149.2c0.5,0.3,1.1,0.4,1.7,0.4h19.7c0.6,0,1.2-0.2,1.7-0.4h17.5   c0.5,0.3,1.1,0.4,1.7,0.4h19.7c0.6,0,1.2-0.2,1.7-0.4h19.5l6.8,113.3l-32.9-2.3l-6.8,6H73.2l-8.2-3.4H38.6L45.5,138z"/>
	<path d="M266.6,263.1v90.3l11.7,26.4c0.7,1.6,2.7,2.4,4.3,1.7c1.7-0.7,2.4-2.7,1.7-4.3L273.2,352v-88.4L266.6,263.1z"/>
	<path d="M284.8,361.9l4.4,10c1.4,1.8,2.3,4,2.3,6.4c0,5.6-4.6,10.2-10.2,10.2c-4.8,0-8.8-3.4-9.9-7.9l-4.6-10.4   c-1.4,2.4-2.2,5.2-2.2,8.1c0,9.2,7.5,16.7,16.7,16.7c9.2,0,16.7-7.5,16.7-16.7C298.1,370.3,292.4,363.5,284.8,361.9z"/>
	<path d="M50.1,264.7v89.4L61,379.8c0.5,1.3,1.7,2,3,2c0.4,0,0.9-0.1,1.3-0.3c1.7-0.7,2.5-2.6,1.8-4.3l-10.3-24.4v-88.1H50.1z"/>
	<path d="M67.7,362.1l4.3,10.1c1.3,1.7,2.1,3.8,2.1,6.1c0,5.6-4.6,10.2-10.2,10.2c-5,0-9.1-3.6-10-8.3l-4.4-10.3   c-1.5,2.5-2.4,5.4-2.4,8.5c0,9.2,7.5,16.7,16.7,16.7c9.2,0,16.7-7.5,16.7-16.7C80.7,370.4,75.1,363.8,67.7,362.1z"/>
	<path d="M363.9,68.5h-32.8v15.8h32.8c2.7,0,5-2.2,5-5v-5.8C368.9,70.7,366.7,68.5,363.9,68.5z"/>
	<path d="M97.9,79.7h10.4c2.1,0,3.7-1.7,3.7-3.7c0-2.1-1.7-3.7-3.7-3.7H97.9c-2.1,0-3.7,1.7-3.7,3.7C94.1,78,95.8,79.7,97.9,79.7z"/>
	<path d="M276.3,96.7v28.3h7.5V96.7c0-9.1,7.4-16.6,16.6-16.6h24v-7.5h-24C287.1,72.7,276.3,83.4,276.3,96.7z"/>
</g>
</svg>