<?xml version="1.0" encoding="UTF-8"?>
<!-- Generator: Adobe Illustrator 17.1.0, SVG Export Plug-In . SVG Version: 6.00 Build 0)  -->
<!DOCTYPE svg PUBLIC "-//W3C//DTD SVG 1.1//EN" "http://www.w3.org/Graphics/SVG/1.1/DTD/svg11.dtd">
<svg version="1.1" id="Layer_1" xmlns="http://www.w3.org/2000/svg" xmlns:xlink="http://www.w3.org/1999/xlink" x="0px" y="0px" width="400px" height="400px" viewBox="0 0 400 400" enable-background="new 0 0 400 400" xml:space="preserve">
<g>
	<path d="M138.7,48.9c-0.1,0-0.2,0-0.3,0c-48.5,0-84.7,35.5-90.1,88.6c-0.1,1.7-3.3,42.8,7.5,96.9c2.8,14.2,4.6,29.4,5.3,45.2   c1.5,35.2,4.1,74.1,15.7,91.5c8.2,12.3,20.5,20,35.5,22.1c2.5,0.4,5.1,0.5,7.6,0.5c13.1,0,25.7-4.8,35.6-13.7   c11.4-10.2,17.5-24.5,17-39.2l-2.9-75.9c0-0.1,0-0.3,0-0.5c-1.1-10.4-0.9-20.9,0.4-31.3c0.7-5.3,1.5-11.1,2.6-17.3   c0.9-3.9,1.5-7.6,2-11.2c2.9-15.2,7-31.5,12.5-45.7c11.6-29.9,9.2-66.1-5.8-87.9C171.5,56.7,156.7,49,138.7,48.9z M161,202.5   c0,0.1-0.1,0.3-0.1,0.4c-6.2-20.6-14.4-38.2-20.6-49.7c4.7,2.2,9.7,5.6,13.7,10.8C160.9,173.3,163.2,186.2,161,202.5z M66.5,215.7   c-0.6-3.6-1.1-7.1-1.5-10.6c4.4-21,20.3-35.1,35.1-43.9C88.1,178.2,75.3,200.1,66.5,215.7z M146.3,369.8   c-8.7,7.8-20.3,11.4-31.9,9.7c-7.7-1.1-18.4-4.8-26-16.1C77.9,347.8,76,303.1,74.9,279c-0.6-14.4-2.2-28.4-4.6-41.7   c18.9-35,42-72.3,53.8-84.7c8.4,14.6,27.7,52.1,31.1,93c-0.2,6.7-0.1,13.5,0.6,20.2l2.9,75.6C159.1,352,154.6,362.3,146.3,369.8z    M174.2,154.2c-1.4,3.5-2.6,7.1-3.8,10.8c-1.5-3.3-3.3-6.5-5.5-9.4c-9.3-12.2-22.3-17.1-30.6-19l6.2-27.7c0.8-3.7-1.5-7.4-5.3-8.3   c-3.7-0.8-7.4,1.5-8.3,5.3l-6.9,30.9c-10.9,3.5-40.7,15.1-57.8,40.1c-1.4-23.1-0.3-38-0.3-38.2c4.7-46.2,34.6-76,76.3-76   c0.1,0,0.2,0,0.3,0c13.5,0,24,5.5,31.3,16.3C182.3,97.1,184.1,128.7,174.2,154.2z"/>
	<path d="M135.2,294.6c-3.8,0.1-6.8,3.4-6.6,7.2l1.5,40.7c0.1,2.3-1.4,4.3-2.3,5.2c-2.4,2.5-5.9,3.8-9.4,3.2   c-3.9-0.6-5.3-2.2-6.3-3.6c-1.3-2.1-4.7-10.5-7.2-44.4c-0.3-3.8-3.6-6.7-7.4-6.4c-3.8,0.3-6.7,3.6-6.4,7.4   c2.7,36.8,6.6,46.7,9.4,51c3.7,5.5,8.9,8.7,15.8,9.7c1.2,0.2,2.4,0.3,3.6,0.3c6.6,0,13.1-2.8,17.8-7.6c2.4-2.5,6.4-7.9,6.1-15.3   l-1.5-40.7C142.3,297.5,139.1,294.4,135.2,294.6z"/>
	<path d="M351.7,94.7c-5.4-52.9-41.6-88.4-90.1-88.4c-0.1,0-0.2,0-0.3,0c-18,0.1-32.8,7.8-42.7,22.3c-14.9,21.9-17.3,58-5.8,87.9   c5.5,14.2,9.5,30.5,12.5,45.7c0.5,3.6,1.1,7.3,2,11.2c1,6.2,1.9,12,2.6,17.3c1.4,10.4,1.5,20.9,0.4,31.3c0,0.1,0,0.3,0,0.5   l-2.9,75.9c-0.6,14.7,5.6,29,17,39.2c9.9,8.9,22.5,13.7,35.6,13.7c2.5,0,5.1-0.2,7.6-0.5c15-2.2,27.3-9.8,35.5-22.1   c11.6-17.3,14.2-56.3,15.8-91.5c0.7-15.8,2.5-31,5.3-45.2C355,137.6,351.9,96.5,351.7,94.7z M230,36.3   c7.3-10.7,17.9-16.2,31.3-16.2c0.1,0,0.2,0,0.3,0c41.7,0,71.6,29.8,76.3,75.9c0,0.2,1.1,15.2-0.2,38.3   c-17.1-24.9-46.9-36.5-57.8-40.1L273,63.3c-0.8-3.7-4.5-6-8.3-5.3c-3.7,0.8-6.1,4.5-5.3,8.3l6.2,27.7c-8.3,1.9-21.3,6.7-30.6,19   c-2.2,2.9-3.9,6.1-5.5,9.4c-1.2-3.7-2.4-7.3-3.8-10.8C215.9,85.9,217.7,54.3,230,36.3z M299.9,118.4c14.8,8.8,30.8,22.9,35.2,44   c-0.4,3.4-1,7-1.5,10.6C324.7,157.3,311.9,135.4,299.9,118.4z M239.1,160.3c0-0.1-0.1-0.3-0.1-0.4c-2.2-16.3,0.1-29.3,7-38.5   c3.9-5.2,9-8.6,13.7-10.8C253.5,122.1,245.3,139.6,239.1,160.3z M311.7,320.7c-7.6,11.3-18.3,15-26,16.1c-11.6,1.7-23.2-1.9-32-9.7   c-8.3-7.5-12.8-17.8-12.4-28.4l2.9-75.6c0.7-6.7,0.9-13.5,0.6-20.2c3.4-40.8,22.7-78.3,31.1-92.9c11.8,12.4,34.9,49.7,53.8,84.7   c-2.4,13.3-3.9,27.2-4.6,41.7C324,260.4,322.1,305.1,311.7,320.7z"/>
	<path d="M302.5,253.9c-3.9-0.3-7.1,2.6-7.4,6.4c-2.5,33.9-5.9,42.3-7.1,44.3c-1,1.5-2.4,3.1-6.3,3.7c-3.5,0.5-7-0.7-9.5-3.3   c-0.9-0.9-2.4-2.9-2.3-5.2l1.5-40.7c0.1-3.8-2.8-7-6.7-7.2c-3.8-0.3-7,2.8-7.2,6.7l-1.5,40.7c-0.3,7.5,3.7,12.8,6.1,15.3   c4.6,4.9,11.1,7.6,17.8,7.6c1.2,0,2.4-0.1,3.6-0.3c6.9-1,12.1-4.2,15.9-9.8c2.7-4.2,6.7-14.1,9.4-50.9   C309.1,257.5,306.3,254.1,302.5,253.9z"/>
</g>
</svg>