<?xml version="1.0" encoding="UTF-8"?>
<svg version="1.1" xmlns="http://www.w3.org/2000/svg" xmlns:xlink="http://www.w3.org/1999/xlink" x="0px" y="0px" width="40px" height="40px" viewBox="0 0 400 400" enable-background="new 0 0 400 400" xml:space="preserve" fill="#d3a478">
<g>
	<path d="M310,5.7h-0.9c-27.1,0-49.2,22.1-49.2,49.2v22.7H140.6V54.9c0-27.1-22.1-49.2-49.2-49.2h-0.9c-27.1,0-49.2,22.1-49.2,49.2   v339.8h317.8V54.9C359.2,27.8,337.1,5.7,310,5.7z M350.9,386.5H49.6V54.9C49.6,32.4,68,14,90.5,14h0.9c22.5,0,40.9,18.3,40.9,40.9   v31h135.8v-31c0-22.5,18.3-40.9,40.9-40.9h0.9c22.5,0,40.9,18.3,40.9,40.9V386.5z"/>
	<path d="M61.1,368.3h80.4v-44.9H61.1V368.3z M69.4,331.7h63.8V360H69.4V331.7z"/>
	<path d="M259.8,368.3h80.4v-44.9h-80.4V368.3z M268.2,331.7H332V360h-63.8V331.7z"/>
	<path d="M113.1,51.9c0-12.1-9.9-22-22.4-22c-12.1,0-22,9.9-22,22v42.5h44.4V51.9z M104.8,86.1H77V51.9c0-7.6,6.2-13.7,14.1-13.7   c7.6,0,13.7,6.2,13.7,13.7V86.1z"/>
	<path d="M331.5,51.9c0-12.1-9.9-22-22.4-22c-12.1,0-22,9.9-22,22v42.5h44.4V51.9z M323.2,86.1h-27.8V51.9c0-7.6,6.2-13.7,14.1-13.7   c7.6,0,13.7,6.2,13.7,13.7V86.1z"/>
	<path d="M113.1,151.9c0-12.1-9.9-22-22.4-22c-12.1,0-22,9.9-22,22v42.5h44.4V151.9z M104.8,186H77v-34.1c0-7.6,6.2-13.7,14.1-13.7   c7.6,0,13.7,6.2,13.7,13.7V186z"/>
	<path d="M185.9,151.9c0-12.1-9.9-22-22.4-22c-12.1,0-22,9.9-22,22v42.5h44.4V151.9z M177.6,186h-27.8v-34.1   c0-7.6,6.2-13.7,14.1-13.7c7.6,0,13.7,6.2,13.7,13.7V186z"/>
	<path d="M258.7,151.9c0-12.1-9.9-22-22.4-22c-12.1,0-22,9.9-22,22v42.5h44.4V151.9z M250.4,186h-27.8v-34.1   c0-7.6,6.2-13.7,14.1-13.7c7.6,0,13.7,6.2,13.7,13.7V186z"/>
	<path d="M331.5,151.9c0-12.1-9.9-22-22.4-22c-12.1,0-22,9.9-22,22v42.5h44.4V151.9z M323.2,186h-27.8v-34.1   c0-7.6,6.2-13.7,14.1-13.7c7.6,0,13.7,6.2,13.7,13.7V186z"/>
	<path d="M68.7,279.6h44.4v-42.5c0-12.1-9.9-22-22.4-22c-12.1,0-22,9.9-22,22V279.6z M77,237.1c0-7.6,6.2-13.7,14.1-13.7   c7.6,0,13.7,6.2,13.7,13.7v34.1H77V237.1z"/>
	<path d="M141.5,279.6h44.4v-42.5c0-12.1-9.9-22-22.4-22c-12.1,0-22,9.9-22,22V279.6z M149.8,237.1c0-7.6,6.2-13.7,14.1-13.7   c7.6,0,13.7,6.2,13.7,13.7v34.1h-27.8V237.1z"/>
	<path d="M214.3,279.6h44.4v-42.5c0-12.1-9.9-22-22.4-22c-12.1,0-22,9.9-22,22V279.6z M222.6,237.1c0-7.6,6.2-13.7,14.1-13.7   c7.6,0,13.7,6.2,13.7,13.7v34.1h-27.8V237.1z"/>
	<path d="M287.1,279.6h44.4v-42.5c0-12.1-9.9-22-22.4-22c-12.1,0-22,9.9-22,22V279.6z M295.4,237.1c0-7.6,6.2-13.7,14.1-13.7   c7.6,0,13.7,6.2,13.7,13.7v34.1h-27.8V237.1z"/>
	<polygon points="161.3,378.2 169.6,378.2 169.6,328.7 197.5,328.7 197.5,378.2 205.8,378.2 205.8,328.7 233.8,328.7 233.8,378.2    242.1,378.2 242.1,320.4 161.3,320.4  "/>
	<rect x="58" y="108" width="284.6" height="8.3"/>
	<path d="M251.6,53.4c0.1-2.8,0.4-5.6,0.8-8.3H148c0.5,2.7,0.7,5.5,0.8,8.3H251.6z"/>
	<rect x="58" y="301.7" width="284.6" height="8.3"/>
</g>
</svg>