<?xml version="1.0" encoding="UTF-8"?>
<svg width="886" height="268" viewBox="0 0 886 268" fill="none" xmlns="http://www.w3.org/2000/svg">
<rect x="4.5" y="4.5" width="260" height="259" stroke="#191919" stroke-width="9"/>
<path d="M414.094 166.728C414.306 166.728 414.412 166.94 414.412 167.364C414.412 167.788 414.306 168 414.094 168H397.028C395.403 168 392.364 165.173 387.912 159.52C383.531 153.867 378.195 145.952 371.906 135.776C370.351 135.917 369.15 135.988 368.302 135.988C366.747 135.988 364.91 135.917 362.79 135.776V159.414C362.79 161.605 362.967 163.195 363.32 164.184C363.744 165.173 364.486 165.845 365.546 166.198C366.677 166.551 368.443 166.728 370.846 166.728C370.987 166.728 371.058 166.94 371.058 167.364C371.058 167.788 370.987 168 370.846 168C368.514 168 366.712 167.965 365.44 167.894L357.596 167.788L349.964 167.894C348.621 167.965 346.784 168 344.452 168C344.24 168 344.134 167.788 344.134 167.364C344.134 166.94 344.24 166.728 344.452 166.728C346.855 166.728 348.586 166.551 349.646 166.198C350.777 165.845 351.554 165.173 351.978 164.184C352.402 163.124 352.614 161.534 352.614 159.414V110.336C352.614 108.216 352.402 106.661 351.978 105.672C351.625 104.683 350.883 104.011 349.752 103.658C348.621 103.234 346.89 103.022 344.558 103.022C344.417 103.022 344.346 102.81 344.346 102.386C344.346 101.962 344.417 101.75 344.558 101.75L350.07 101.856C353.179 101.997 355.688 102.068 357.596 102.068C359.928 102.068 362.472 101.962 365.228 101.75C366.147 101.679 367.242 101.609 368.514 101.538C369.857 101.467 371.341 101.432 372.966 101.432C379.114 101.432 383.849 102.633 387.17 105.036C390.562 107.439 392.258 110.795 392.258 115.106C392.258 118.993 391.163 122.491 388.972 125.6C386.852 128.709 383.99 131.183 380.386 133.02C386.181 141.571 391.021 148.249 394.908 153.054C398.795 157.859 402.222 161.357 405.19 163.548C408.229 165.668 411.197 166.728 414.094 166.728ZM362.79 132.914C364.486 133.197 366.535 133.338 368.938 133.338C373.531 133.338 376.817 132.207 378.796 129.946C380.775 127.614 381.764 123.904 381.764 118.816C381.764 113.092 380.775 109.099 378.796 106.838C376.888 104.577 374.097 103.446 370.422 103.446C367.666 103.446 365.687 103.976 364.486 105.036C363.355 106.025 362.79 107.863 362.79 110.548V132.914ZM457.613 169.272C451.041 169.272 445.175 167.753 440.017 164.714C434.929 161.605 430.971 157.435 428.145 152.206C425.389 146.906 424.011 141.147 424.011 134.928C424.011 127.649 425.848 121.431 429.523 116.272C433.197 111.043 437.897 107.121 443.621 104.506C449.415 101.891 455.316 100.584 461.323 100.584C468.036 100.584 473.937 102.174 479.025 105.354C484.113 108.463 487.999 112.597 490.685 117.756C493.441 122.915 494.819 128.391 494.819 134.186C494.819 140.617 493.123 146.517 489.731 151.888C486.339 157.259 481.781 161.499 476.057 164.608C470.403 167.717 464.255 169.272 457.613 169.272ZM461.217 166.728C465.457 166.728 469.237 165.597 472.559 163.336C475.951 161.004 478.601 157.612 480.509 153.16C482.487 148.708 483.477 143.408 483.477 137.26C483.477 130.759 482.381 124.929 480.191 119.77C478.071 114.611 474.997 110.583 470.969 107.686C467.011 104.789 462.347 103.34 456.977 103.34C450.122 103.34 444.787 105.813 440.971 110.76C437.225 115.636 435.353 122.42 435.353 131.112C435.353 137.825 436.448 143.903 438.639 149.344C440.9 154.785 443.974 159.061 447.861 162.17C451.818 165.209 456.27 166.728 461.217 166.728ZM573.915 101.75C574.056 101.75 574.127 101.962 574.127 102.386C574.127 102.81 574.056 103.022 573.915 103.022C571.583 103.022 568.933 104.259 565.965 106.732C562.997 109.135 560.347 112.244 558.015 116.06L545.931 135.67V159.414C545.931 161.605 546.107 163.195 546.461 164.184C546.885 165.173 547.627 165.845 548.687 166.198C549.817 166.551 551.584 166.728 553.987 166.728C554.199 166.728 554.305 166.94 554.305 167.364C554.305 167.788 554.199 168 553.987 168C551.655 168 549.853 167.965 548.581 167.894L540.843 167.788L533.211 167.894C531.797 167.965 529.925 168 527.593 168C527.451 168 527.381 167.788 527.381 167.364C527.381 166.94 527.451 166.728 527.593 166.728C529.995 166.728 531.727 166.551 532.787 166.198C533.917 165.845 534.695 165.173 535.119 164.184C535.543 163.124 535.755 161.534 535.755 159.414V137.578L519.643 112.986C517.24 109.241 515.155 106.661 513.389 105.248C511.693 103.764 510.032 103.022 508.407 103.022C508.195 103.022 508.089 102.81 508.089 102.386C508.089 101.962 508.195 101.75 508.407 101.75L511.905 101.856C513.459 101.997 514.59 102.068 515.297 102.068C517.699 102.068 521.091 101.997 525.473 101.856L532.045 101.75C532.186 101.75 532.257 101.962 532.257 102.386C532.257 102.81 532.186 103.022 532.045 103.022C529.147 103.022 527.699 104.011 527.699 105.99C527.699 106.979 528.123 108.11 528.971 109.382L544.341 133.02L555.153 115.318C556.919 112.421 557.803 109.877 557.803 107.686C557.803 104.577 555.859 103.022 551.973 103.022C551.831 103.022 551.761 102.81 551.761 102.386C551.761 101.962 551.831 101.75 551.973 101.75L557.485 101.856C560.453 101.997 563.173 102.068 565.647 102.068C566.848 102.068 568.297 101.997 569.993 101.856L573.915 101.75ZM653.68 166.728C654.033 166.728 654.21 166.94 654.21 167.364C654.21 167.788 654.033 168 653.68 168C652.337 168 650.182 167.929 647.214 167.788C644.246 167.647 642.09 167.576 640.748 167.576C638.981 167.576 636.896 167.647 634.494 167.788C632.091 167.929 630.218 168 628.876 168C628.593 168 628.452 167.788 628.452 167.364C628.452 166.94 628.593 166.728 628.876 166.728C630.925 166.728 632.409 166.516 633.328 166.092C634.317 165.597 634.812 164.82 634.812 163.76C634.812 162.7 634.211 160.898 633.01 158.354L624.954 142.03H599.302L594.214 153.478C593.295 155.598 592.836 157.506 592.836 159.202C592.836 161.675 593.719 163.548 595.486 164.82C597.252 166.092 599.726 166.728 602.906 166.728C603.259 166.728 603.436 166.94 603.436 167.364C603.436 167.788 603.259 168 602.906 168C601.634 168 599.796 167.929 597.394 167.788C594.708 167.647 592.376 167.576 590.398 167.576C588.49 167.576 586.264 167.647 583.72 167.788C581.458 167.929 579.586 168 578.102 168C577.748 168 577.572 167.788 577.572 167.364C577.572 166.94 577.748 166.728 578.102 166.728C580.08 166.728 581.741 166.339 583.084 165.562C584.426 164.785 585.734 163.407 587.006 161.428C588.278 159.379 589.797 156.375 591.564 152.418L614.354 101.114C614.495 100.902 614.813 100.796 615.308 100.796C615.802 100.796 616.085 100.902 616.156 101.114L642.126 153.478C644.599 158.566 646.648 162.064 648.274 163.972C649.97 165.809 651.772 166.728 653.68 166.728ZM600.468 139.38H623.682L611.492 114.682L600.468 139.38ZM685.897 158.99C685.897 160.898 686.038 162.276 686.321 163.124C686.674 163.972 687.31 164.537 688.229 164.82C689.148 165.103 690.632 165.244 692.681 165.244H699.041C704.058 165.244 708.298 163.866 711.761 161.11C715.224 158.283 717.52 154.503 718.651 149.768C718.722 149.556 718.934 149.485 719.287 149.556C719.64 149.556 719.817 149.662 719.817 149.874C719.181 156.517 718.863 162.029 718.863 166.41C718.863 166.975 718.757 167.399 718.545 167.682C718.333 167.894 717.909 168 717.273 168H667.665C667.524 168 667.453 167.788 667.453 167.364C667.453 166.94 667.524 166.728 667.665 166.728C670.068 166.728 671.799 166.551 672.859 166.198C673.99 165.845 674.732 165.173 675.085 164.184C675.509 163.124 675.721 161.534 675.721 159.414V110.336C675.721 108.216 675.509 106.661 675.085 105.672C674.732 104.683 673.99 104.011 672.859 103.658C671.728 103.234 669.997 103.022 667.665 103.022C667.524 103.022 667.453 102.81 667.453 102.386C667.453 101.962 667.524 101.75 667.665 101.75L673.071 101.856C676.18 101.997 678.724 102.068 680.703 102.068C682.823 102.068 685.438 101.997 688.547 101.856L693.847 101.75C694.059 101.75 694.165 101.962 694.165 102.386C694.165 102.81 694.059 103.022 693.847 103.022C691.515 103.022 689.784 103.234 688.653 103.658C687.593 104.011 686.851 104.718 686.427 105.778C686.074 106.767 685.897 108.322 685.897 110.442V158.99ZM792.747 114.682C792.747 111.007 791.899 108.145 790.203 106.096C788.577 104.047 786.21 103.022 783.101 103.022C782.959 103.022 782.889 102.81 782.889 102.386C782.889 101.962 782.959 101.75 783.101 101.75L787.977 101.856C790.662 101.997 792.782 102.068 794.337 102.068C795.609 102.068 797.517 101.997 800.061 101.856L804.725 101.75C804.866 101.75 804.937 101.962 804.937 102.386C804.937 102.81 804.866 103.022 804.725 103.022C801.969 103.022 799.813 104.047 798.259 106.096C796.775 108.145 796.033 111.007 796.033 114.682V144.362C796.033 149.45 794.937 153.902 792.747 157.718C790.627 161.463 787.588 164.361 783.631 166.41C779.744 168.459 775.221 169.484 770.063 169.484C764.904 169.484 760.311 168.495 756.283 166.516C752.255 164.467 749.11 161.569 746.849 157.824C744.658 154.008 743.563 149.556 743.563 144.468V110.336C743.563 108.216 743.351 106.661 742.927 105.672C742.503 104.683 741.725 104.011 740.595 103.658C739.535 103.234 737.839 103.022 735.507 103.022C735.295 103.022 735.189 102.81 735.189 102.386C735.189 101.962 735.295 101.75 735.507 101.75L741.019 101.856C744.128 101.997 746.637 102.068 748.545 102.068C750.665 102.068 753.279 101.997 756.389 101.856L761.689 101.75C761.901 101.75 762.007 101.962 762.007 102.386C762.007 102.81 761.901 103.022 761.689 103.022C759.357 103.022 757.625 103.234 756.495 103.658C755.364 104.082 754.587 104.824 754.163 105.884C753.809 106.873 753.633 108.428 753.633 110.548V140.758C753.633 149.167 755.364 155.457 758.827 159.626C762.36 163.725 767.271 165.774 773.561 165.774C779.567 165.774 784.267 163.937 787.659 160.262C791.051 156.517 792.747 151.252 792.747 144.468V114.682ZM885.091 166.728C885.303 166.728 885.409 166.94 885.409 167.364C885.409 167.788 885.303 168 885.091 168C883.112 168 881.593 167.965 880.533 167.894L874.279 167.788L865.693 167.894C864.421 167.965 862.619 168 860.287 168C860.075 168 859.969 167.788 859.969 167.364C859.969 166.94 860.075 166.728 860.287 166.728C863.043 166.728 864.421 166.127 864.421 164.926C864.421 164.29 864.103 163.513 863.467 162.594L848.415 139.486L837.815 154.538C835.412 158.001 834.211 160.721 834.211 162.7C834.211 163.972 834.706 164.961 835.695 165.668C836.684 166.375 838.133 166.728 840.041 166.728C840.182 166.728 840.253 166.94 840.253 167.364C840.253 167.788 840.182 168 840.041 168C837.78 168 836.048 167.965 834.847 167.894L827.215 167.788L822.339 167.894C821.491 167.965 820.078 168 818.099 168C817.887 168 817.781 167.788 817.781 167.364C817.781 166.94 817.887 166.728 818.099 166.728C820.36 166.728 822.94 165.703 825.837 163.654C828.805 161.534 831.844 158.319 834.953 154.008L847.143 137.472L830.077 111.29C828.169 108.322 826.332 106.202 824.565 104.93C822.798 103.658 820.855 103.022 818.735 103.022C818.523 103.022 818.417 102.81 818.417 102.386C818.417 101.962 818.523 101.75 818.735 101.75L823.081 101.856C825.06 101.997 826.508 102.068 827.427 102.068C829.83 102.068 832.868 101.997 836.543 101.856L842.373 101.75C842.514 101.75 842.585 101.962 842.585 102.386C842.585 102.81 842.514 103.022 842.373 103.022C840.96 103.022 839.9 103.163 839.193 103.446C838.486 103.658 838.133 104.117 838.133 104.824C838.133 105.389 838.451 106.202 839.087 107.262L853.609 129.522L863.467 115.53C865.94 111.997 867.177 109.17 867.177 107.05C867.177 104.365 865.269 103.022 861.453 103.022C861.312 103.022 861.241 102.81 861.241 102.386C861.241 101.962 861.312 101.75 861.453 101.75L866.647 101.856C869.474 101.997 872.018 102.068 874.279 102.068C875.692 102.068 877.318 101.997 879.155 101.856L883.395 101.75C883.607 101.75 883.713 101.962 883.713 102.386C883.713 102.81 883.607 103.022 883.395 103.022C881.063 103.022 878.413 104.117 875.445 106.308C872.477 108.428 869.438 111.679 866.329 116.06L854.881 131.536L872.901 159.202C874.668 161.887 876.505 163.831 878.413 165.032C880.321 166.163 882.547 166.728 885.091 166.728Z" fill="#191919"/>
<path d="M179.389 165.116V130.889L163.903 121.706V91.6939L140.361 77.2933V53H132.639V77.2933L109.097 91.7356V121.747L93.6111 130.93V165.158L78 174.425V219.505H85.7221V178.807L136.521 148.503L187.236 178.849V219.505H194.958V174.425L179.389 165.116ZM116.819 96.035L136.479 83.9718L156.139 96.035V117.114L136.479 105.468L116.819 117.114V96.035ZM171.625 160.483L163.903 155.85V140.823L156.181 136.232V151.217L136.521 139.487L116.861 151.258V136.273L109.139 140.865V155.892L101.417 160.525V135.313L136.521 114.484L171.667 135.313V160.483H171.625Z" fill="#191919"/>
<path d="M179.389 165.116V130.889L163.903 121.706V91.6939L140.361 77.2933V53H136.479V84.0136L156.139 96.035V117.114L136.479 105.468V114.484L171.625 135.271V160.483L163.903 155.85V140.823L156.139 136.232V151.217L136.521 139.487H136.479V148.503H136.521L187.236 178.807V219.505H195V174.425L179.389 165.116Z" fill="#191919"/>
<path d="M93.6111 219.505H101.375V179.016L93.6111 183.649V219.505Z" fill="#191919"/>
<path d="M125.042 189.994V219.505H132.764V194.001L136.479 191.413L140.236 194.001V219.505H147.958V189.994L136.479 181.98L125.042 189.994Z" fill="#191919"/>
<path d="M156.139 219.505H163.903V174.383L156.139 169.75V219.505Z" fill="#191919"/>
<path d="M109.097 219.505H116.819V169.791L109.097 174.425V219.505Z" fill="#191919"/>
<path d="M171.625 219.505H179.389V183.649L171.625 179.016V219.505Z" fill="#191919"/>
<path d="M140.236 219.505H147.958V189.994L136.479 181.98V191.413L140.236 194.001V219.505Z" fill="#191919"/>
<path d="M156.139 219.505H163.903V174.383L156.139 169.75V219.505Z" fill="#191919"/>
<path d="M171.625 219.505H179.389V183.649L171.625 179.016V219.505Z" fill="#191919"/>
</svg>