<?xml version="1.0" encoding="UTF-8"?>
<svg width="546" height="557" viewBox="0 0 546 557" fill="none" xmlns="http://www.w3.org/2000/svg">
<path d="M74.094 414.728C74.306 414.728 74.412 414.94 74.412 415.364C74.412 415.788 74.306 416 74.094 416H57.028C55.4027 416 52.364 413.173 47.912 407.52C43.5307 401.867 38.1953 393.952 31.906 383.776C30.3513 383.917 29.15 383.988 28.302 383.988C26.7473 383.988 24.91 383.917 22.79 383.776V407.414C22.79 409.605 22.9667 411.195 23.32 412.184C23.744 413.173 24.486 413.845 25.546 414.198C26.6767 414.551 28.4433 414.728 30.846 414.728C30.9873 414.728 31.058 414.94 31.058 415.364C31.058 415.788 30.9873 416 30.846 416C28.514 416 26.712 415.965 25.44 415.894L17.596 415.788L9.964 415.894C8.62133 415.965 6.784 416 4.452 416C4.24 416 4.134 415.788 4.134 415.364C4.134 414.94 4.24 414.728 4.452 414.728C6.85467 414.728 8.586 414.551 9.646 414.198C10.7767 413.845 11.554 413.173 11.978 412.184C12.402 411.124 12.614 409.534 12.614 407.414V358.336C12.614 356.216 12.402 354.661 11.978 353.672C11.6247 352.683 10.8827 352.011 9.752 351.658C8.62133 351.234 6.89 351.022 4.558 351.022C4.41667 351.022 4.346 350.81 4.346 350.386C4.346 349.962 4.41667 349.75 4.558 349.75L10.07 349.856C13.1793 349.997 15.688 350.068 17.596 350.068C19.928 350.068 22.472 349.962 25.228 349.75C26.1467 349.679 27.242 349.609 28.514 349.538C29.8567 349.467 31.3407 349.432 32.966 349.432C39.114 349.432 43.8487 350.633 47.17 353.036C50.562 355.439 52.258 358.795 52.258 363.106C52.258 366.993 51.1627 370.491 48.972 373.6C46.852 376.709 43.99 379.183 40.386 381.02C46.1807 389.571 51.0213 396.249 54.908 401.054C58.7947 405.859 62.222 409.357 65.19 411.548C68.2287 413.668 71.1967 414.728 74.094 414.728ZM22.79 380.914C24.486 381.197 26.5353 381.338 28.938 381.338C33.5313 381.338 36.8173 380.207 38.796 377.946C40.7747 375.614 41.764 371.904 41.764 366.816C41.764 361.092 40.7747 357.099 38.796 354.838C36.888 352.577 34.0967 351.446 30.422 351.446C27.666 351.446 25.6873 351.976 24.486 353.036C23.3553 354.025 22.79 355.863 22.79 358.548V380.914ZM117.613 417.272C111.041 417.272 105.175 415.753 100.017 412.714C94.9288 409.605 90.9715 405.435 88.1448 400.206C85.3888 394.906 84.0108 389.147 84.0108 382.928C84.0108 375.649 85.8481 369.431 89.5228 364.272C93.1975 359.043 97.8968 355.121 103.621 352.506C109.415 349.891 115.316 348.584 121.323 348.584C128.036 348.584 133.937 350.174 139.025 353.354C144.113 356.463 147.999 360.597 150.685 365.756C153.441 370.915 154.819 376.391 154.819 382.186C154.819 388.617 153.123 394.517 149.731 399.888C146.339 405.259 141.781 409.499 136.057 412.608C130.403 415.717 124.255 417.272 117.613 417.272ZM121.217 414.728C125.457 414.728 129.237 413.597 132.559 411.336C135.951 409.004 138.601 405.612 140.509 401.16C142.487 396.708 143.477 391.408 143.477 385.26C143.477 378.759 142.381 372.929 140.191 367.77C138.071 362.611 134.997 358.583 130.969 355.686C127.011 352.789 122.347 351.34 116.977 351.34C110.122 351.34 104.787 353.813 100.971 358.76C97.2255 363.636 95.3528 370.42 95.3528 379.112C95.3528 385.825 96.4481 391.903 98.6388 397.344C100.9 402.785 103.974 407.061 107.861 410.17C111.818 413.209 116.27 414.728 121.217 414.728ZM233.915 349.75C234.056 349.75 234.127 349.962 234.127 350.386C234.127 350.81 234.056 351.022 233.915 351.022C231.583 351.022 228.933 352.259 225.965 354.732C222.997 357.135 220.347 360.244 218.015 364.06L205.931 383.67V407.414C205.931 409.605 206.107 411.195 206.461 412.184C206.885 413.173 207.627 413.845 208.687 414.198C209.817 414.551 211.584 414.728 213.987 414.728C214.199 414.728 214.305 414.94 214.305 415.364C214.305 415.788 214.199 416 213.987 416C211.655 416 209.853 415.965 208.581 415.894L200.843 415.788L193.211 415.894C191.797 415.965 189.925 416 187.593 416C187.451 416 187.381 415.788 187.381 415.364C187.381 414.94 187.451 414.728 187.593 414.728C189.995 414.728 191.727 414.551 192.787 414.198C193.917 413.845 194.695 413.173 195.119 412.184C195.543 411.124 195.755 409.534 195.755 407.414V385.578L179.643 360.986C177.24 357.241 175.155 354.661 173.389 353.248C171.693 351.764 170.032 351.022 168.407 351.022C168.195 351.022 168.089 350.81 168.089 350.386C168.089 349.962 168.195 349.75 168.407 349.75L171.905 349.856C173.459 349.997 174.59 350.068 175.297 350.068C177.699 350.068 181.091 349.997 185.473 349.856L192.045 349.75C192.186 349.75 192.257 349.962 192.257 350.386C192.257 350.81 192.186 351.022 192.045 351.022C189.147 351.022 187.699 352.011 187.699 353.99C187.699 354.979 188.123 356.11 188.971 357.382L204.341 381.02L215.153 363.318C216.919 360.421 217.803 357.877 217.803 355.686C217.803 352.577 215.859 351.022 211.973 351.022C211.831 351.022 211.761 350.81 211.761 350.386C211.761 349.962 211.831 349.75 211.973 349.75L217.485 349.856C220.453 349.997 223.173 350.068 225.647 350.068C226.848 350.068 228.297 349.997 229.993 349.856L233.915 349.75ZM313.68 414.728C314.033 414.728 314.21 414.94 314.21 415.364C314.21 415.788 314.033 416 313.68 416C312.337 416 310.182 415.929 307.214 415.788C304.246 415.647 302.09 415.576 300.748 415.576C298.981 415.576 296.896 415.647 294.494 415.788C292.091 415.929 290.218 416 288.876 416C288.593 416 288.452 415.788 288.452 415.364C288.452 414.94 288.593 414.728 288.876 414.728C290.925 414.728 292.409 414.516 293.328 414.092C294.317 413.597 294.812 412.82 294.812 411.76C294.812 410.7 294.211 408.898 293.01 406.354L284.954 390.03H259.302L254.214 401.478C253.295 403.598 252.836 405.506 252.836 407.202C252.836 409.675 253.719 411.548 255.486 412.82C257.252 414.092 259.726 414.728 262.906 414.728C263.259 414.728 263.436 414.94 263.436 415.364C263.436 415.788 263.259 416 262.906 416C261.634 416 259.796 415.929 257.394 415.788C254.708 415.647 252.376 415.576 250.398 415.576C248.49 415.576 246.264 415.647 243.72 415.788C241.458 415.929 239.586 416 238.102 416C237.748 416 237.572 415.788 237.572 415.364C237.572 414.94 237.748 414.728 238.102 414.728C240.08 414.728 241.741 414.339 243.084 413.562C244.426 412.785 245.734 411.407 247.006 409.428C248.278 407.379 249.797 404.375 251.564 400.418L274.354 349.114C274.495 348.902 274.813 348.796 275.308 348.796C275.802 348.796 276.085 348.902 276.156 349.114L302.126 401.478C304.599 406.566 306.648 410.064 308.274 411.972C309.97 413.809 311.772 414.728 313.68 414.728ZM260.468 387.38H283.682L271.492 362.682L260.468 387.38ZM345.897 406.99C345.897 408.898 346.038 410.276 346.321 411.124C346.674 411.972 347.31 412.537 348.229 412.82C349.148 413.103 350.632 413.244 352.681 413.244H359.041C364.058 413.244 368.298 411.866 371.761 409.11C375.224 406.283 377.52 402.503 378.651 397.768C378.722 397.556 378.934 397.485 379.287 397.556C379.64 397.556 379.817 397.662 379.817 397.874C379.181 404.517 378.863 410.029 378.863 414.41C378.863 414.975 378.757 415.399 378.545 415.682C378.333 415.894 377.909 416 377.273 416H327.665C327.524 416 327.453 415.788 327.453 415.364C327.453 414.94 327.524 414.728 327.665 414.728C330.068 414.728 331.799 414.551 332.859 414.198C333.99 413.845 334.732 413.173 335.085 412.184C335.509 411.124 335.721 409.534 335.721 407.414V358.336C335.721 356.216 335.509 354.661 335.085 353.672C334.732 352.683 333.99 352.011 332.859 351.658C331.728 351.234 329.997 351.022 327.665 351.022C327.524 351.022 327.453 350.81 327.453 350.386C327.453 349.962 327.524 349.75 327.665 349.75L333.071 349.856C336.18 349.997 338.724 350.068 340.703 350.068C342.823 350.068 345.438 349.997 348.547 349.856L353.847 349.75C354.059 349.75 354.165 349.962 354.165 350.386C354.165 350.81 354.059 351.022 353.847 351.022C351.515 351.022 349.784 351.234 348.653 351.658C347.593 352.011 346.851 352.718 346.427 353.778C346.074 354.767 345.897 356.322 345.897 358.442V406.99ZM452.747 362.682C452.747 359.007 451.899 356.145 450.203 354.096C448.577 352.047 446.21 351.022 443.101 351.022C442.959 351.022 442.889 350.81 442.889 350.386C442.889 349.962 442.959 349.75 443.101 349.75L447.977 349.856C450.662 349.997 452.782 350.068 454.337 350.068C455.609 350.068 457.517 349.997 460.061 349.856L464.725 349.75C464.866 349.75 464.937 349.962 464.937 350.386C464.937 350.81 464.866 351.022 464.725 351.022C461.969 351.022 459.813 352.047 458.259 354.096C456.775 356.145 456.033 359.007 456.033 362.682V392.362C456.033 397.45 454.937 401.902 452.747 405.718C450.627 409.463 447.588 412.361 443.631 414.41C439.744 416.459 435.221 417.484 430.063 417.484C424.904 417.484 420.311 416.495 416.283 414.516C412.255 412.467 409.11 409.569 406.849 405.824C404.658 402.008 403.563 397.556 403.563 392.468V358.336C403.563 356.216 403.351 354.661 402.927 353.672C402.503 352.683 401.725 352.011 400.595 351.658C399.535 351.234 397.839 351.022 395.507 351.022C395.295 351.022 395.189 350.81 395.189 350.386C395.189 349.962 395.295 349.75 395.507 349.75L401.019 349.856C404.128 349.997 406.637 350.068 408.545 350.068C410.665 350.068 413.279 349.997 416.389 349.856L421.689 349.75C421.901 349.75 422.007 349.962 422.007 350.386C422.007 350.81 421.901 351.022 421.689 351.022C419.357 351.022 417.625 351.234 416.495 351.658C415.364 352.082 414.587 352.824 414.163 353.884C413.809 354.873 413.633 356.428 413.633 358.548V388.758C413.633 397.167 415.364 403.457 418.827 407.626C422.36 411.725 427.271 413.774 433.561 413.774C439.567 413.774 444.267 411.937 447.659 408.262C451.051 404.517 452.747 399.252 452.747 392.468V362.682ZM545.091 414.728C545.303 414.728 545.409 414.94 545.409 415.364C545.409 415.788 545.303 416 545.091 416C543.112 416 541.593 415.965 540.533 415.894L534.279 415.788L525.693 415.894C524.421 415.965 522.619 416 520.287 416C520.075 416 519.969 415.788 519.969 415.364C519.969 414.94 520.075 414.728 520.287 414.728C523.043 414.728 524.421 414.127 524.421 412.926C524.421 412.29 524.103 411.513 523.467 410.594L508.415 387.486L497.815 402.538C495.412 406.001 494.211 408.721 494.211 410.7C494.211 411.972 494.706 412.961 495.695 413.668C496.684 414.375 498.133 414.728 500.041 414.728C500.182 414.728 500.253 414.94 500.253 415.364C500.253 415.788 500.182 416 500.041 416C497.78 416 496.048 415.965 494.847 415.894L487.215 415.788L482.339 415.894C481.491 415.965 480.078 416 478.099 416C477.887 416 477.781 415.788 477.781 415.364C477.781 414.94 477.887 414.728 478.099 414.728C480.36 414.728 482.94 413.703 485.837 411.654C488.805 409.534 491.844 406.319 494.953 402.008L507.143 385.472L490.077 359.29C488.169 356.322 486.332 354.202 484.565 352.93C482.798 351.658 480.855 351.022 478.735 351.022C478.523 351.022 478.417 350.81 478.417 350.386C478.417 349.962 478.523 349.75 478.735 349.75L483.081 349.856C485.06 349.997 486.508 350.068 487.427 350.068C489.83 350.068 492.868 349.997 496.543 349.856L502.373 349.75C502.514 349.75 502.585 349.962 502.585 350.386C502.585 350.81 502.514 351.022 502.373 351.022C500.96 351.022 499.9 351.163 499.193 351.446C498.486 351.658 498.133 352.117 498.133 352.824C498.133 353.389 498.451 354.202 499.087 355.262L513.609 377.522L523.467 363.53C525.94 359.997 527.177 357.17 527.177 355.05C527.177 352.365 525.269 351.022 521.453 351.022C521.312 351.022 521.241 350.81 521.241 350.386C521.241 349.962 521.312 349.75 521.453 349.75L526.647 349.856C529.474 349.997 532.018 350.068 534.279 350.068C535.692 350.068 537.318 349.997 539.155 349.856L543.395 349.75C543.607 349.75 543.713 349.962 543.713 350.386C543.713 350.81 543.607 351.022 543.395 351.022C541.063 351.022 538.413 352.117 535.445 354.308C532.477 356.428 529.438 359.679 526.329 364.06L514.881 379.536L532.901 407.202C534.668 409.887 536.505 411.831 538.413 413.032C540.321 414.163 542.547 414.728 545.091 414.728Z" fill="white"/>
<rect x="145.5" y="4.5" width="260" height="259" stroke="#D3A478" stroke-width="9"/>
<path d="M320.389 165.116V130.889L304.903 121.706V91.6939L281.361 77.2933V53H273.639V77.2933L250.097 91.7356V121.747L234.611 130.93V165.158L219 174.425V219.505H226.722V178.807L277.521 148.503L328.236 178.849V219.505H335.958V174.425L320.389 165.116ZM257.819 96.035L277.479 83.9718L297.139 96.035V117.114L277.479 105.468L257.819 117.114V96.035ZM312.625 160.483L304.903 155.85V140.823L297.181 136.232V151.217L277.521 139.487L257.861 151.258V136.273L250.139 140.865V155.892L242.417 160.525V135.313L277.521 114.484L312.667 135.313V160.483H312.625Z" fill="#D3A478"/>
<path d="M320.389 165.116V130.889L304.903 121.706V91.6939L281.361 77.2933V53H277.479V84.0136L297.139 96.035V117.114L277.479 105.468V114.484L312.625 135.271V160.483L304.903 155.85V140.823L297.139 136.232V151.217L277.521 139.487H277.479V148.503H277.521L328.236 178.807V219.505H336V174.425L320.389 165.116Z" fill="#D3A478"/>
<path d="M234.611 219.505H242.375V179.016L234.611 183.649V219.505Z" fill="#D3A478"/>
<path d="M266.042 189.994V219.505H273.764V194.001L277.479 191.413L281.236 194.001V219.505H288.958V189.994L277.479 181.98L266.042 189.994Z" fill="#D3A478"/>
<path d="M297.139 219.505H304.903V174.383L297.139 169.75V219.505Z" fill="#D3A478"/>
<path d="M250.097 219.505H257.819V169.791L250.097 174.425V219.505Z" fill="#D3A478"/>
<path d="M312.625 219.505H320.389V183.649L312.625 179.016V219.505Z" fill="#D3A478"/>
<path d="M281.236 219.505H288.958V189.994L277.479 181.98V191.413L281.236 194.001V219.505Z" fill="#D3A478"/>
<path d="M297.139 219.505H304.903V174.383L297.139 169.75V219.505Z" fill="#D3A478"/>
<path d="M312.625 219.505H320.389V183.649L312.625 179.016V219.505Z" fill="#D3A478"/>
<path d="M135.806 543.342C132.842 543.342 129.992 542.867 127.256 541.917C124.558 540.967 122.468 539.713 120.986 538.155L122.639 534.906C124.083 536.35 126.002 537.528 128.396 538.44C130.79 539.314 133.26 539.751 135.806 539.751C139.378 539.751 142.057 539.105 143.843 537.813C145.629 536.483 146.522 534.773 146.522 532.683C146.522 531.087 146.028 529.814 145.04 528.864C144.09 527.914 142.912 527.192 141.506 526.698C140.1 526.166 138.143 525.596 135.635 524.988C132.633 524.228 130.239 523.506 128.453 522.822C126.667 522.1 125.128 521.017 123.836 519.573C122.582 518.129 121.955 516.172 121.955 513.702C121.955 511.688 122.487 509.864 123.551 508.23C124.615 506.558 126.249 505.228 128.453 504.24C130.657 503.252 133.393 502.758 136.661 502.758C138.941 502.758 141.164 503.081 143.33 503.727C145.534 504.335 147.434 505.19 149.03 506.292L147.605 509.655C145.933 508.553 144.147 507.736 142.247 507.204C140.347 506.634 138.485 506.349 136.661 506.349C133.165 506.349 130.524 507.033 128.738 508.401C126.99 509.731 126.116 511.46 126.116 513.588C126.116 515.184 126.591 516.476 127.541 517.464C128.529 518.414 129.745 519.155 131.189 519.687C132.671 520.181 134.647 520.732 137.117 521.34C140.043 522.062 142.399 522.784 144.185 523.506C146.009 524.19 147.548 525.254 148.802 526.698C150.056 528.104 150.683 530.023 150.683 532.455C150.683 534.469 150.132 536.312 149.03 537.984C147.966 539.618 146.313 540.929 144.071 541.917C141.829 542.867 139.074 543.342 135.806 543.342ZM159.018 513.018H163.065V543H159.018V513.018ZM161.07 506.463C160.234 506.463 159.531 506.178 158.961 505.608C158.391 505.038 158.106 504.354 158.106 503.556C158.106 502.796 158.391 502.131 158.961 501.561C159.531 500.991 160.234 500.706 161.07 500.706C161.906 500.706 162.609 500.991 163.179 501.561C163.749 502.093 164.034 502.739 164.034 503.499C164.034 504.335 163.749 505.038 163.179 505.608C162.609 506.178 161.906 506.463 161.07 506.463ZM189.602 512.79C193.364 512.79 196.347 513.892 198.551 516.096C200.793 518.262 201.914 521.435 201.914 525.615V543H197.867V526.014C197.867 522.898 197.088 520.523 195.53 518.889C193.972 517.255 191.749 516.438 188.861 516.438C185.631 516.438 183.066 517.407 181.166 519.345C179.304 521.245 178.373 523.886 178.373 527.268V543H174.326V513.018H178.202V518.547C179.304 516.723 180.824 515.317 182.762 514.329C184.738 513.303 187.018 512.79 189.602 512.79ZM225.438 543.285C222.474 543.285 219.814 542.639 217.458 541.347C215.14 540.055 213.316 538.25 211.986 535.932C210.656 533.576 209.991 530.935 209.991 528.009C209.991 525.083 210.656 522.461 211.986 520.143C213.316 517.825 215.14 516.02 217.458 514.728C219.814 513.436 222.474 512.79 225.438 512.79C228.022 512.79 230.321 513.303 232.335 514.329C234.387 515.317 236.002 516.78 237.18 518.718L234.159 520.77C233.171 519.288 231.917 518.186 230.397 517.464C228.877 516.704 227.224 516.324 225.438 516.324C223.272 516.324 221.315 516.818 219.567 517.806C217.857 518.756 216.508 520.124 215.52 521.91C214.57 523.696 214.095 525.729 214.095 528.009C214.095 530.327 214.57 532.379 215.52 534.165C216.508 535.913 217.857 537.281 219.567 538.269C221.315 539.219 223.272 539.694 225.438 539.694C227.224 539.694 228.877 539.333 230.397 538.611C231.917 537.889 233.171 536.787 234.159 535.305L237.18 537.357C236.002 539.295 234.387 540.777 232.335 541.803C230.283 542.791 227.984 543.285 225.438 543.285ZM270.735 529.263H245.655C245.883 532.379 247.08 534.906 249.246 536.844C251.412 538.744 254.148 539.694 257.454 539.694C259.316 539.694 261.026 539.371 262.584 538.725C264.142 538.041 265.491 537.053 266.631 535.761L268.911 538.383C267.581 539.979 265.909 541.195 263.895 542.031C261.919 542.867 259.734 543.285 257.34 543.285C254.262 543.285 251.526 542.639 249.132 541.347C246.776 540.017 244.933 538.193 243.603 535.875C242.273 533.557 241.608 530.935 241.608 528.009C241.608 525.083 242.235 522.461 243.489 520.143C244.781 517.825 246.529 516.02 248.733 514.728C250.975 513.436 253.483 512.79 256.257 512.79C259.031 512.79 261.52 513.436 263.724 514.728C265.928 516.02 267.657 517.825 268.911 520.143C270.165 522.423 270.792 525.045 270.792 528.009L270.735 529.263ZM256.257 516.267C253.369 516.267 250.937 517.198 248.961 519.06C247.023 520.884 245.921 523.278 245.655 526.242H266.916C266.65 523.278 265.529 520.884 263.553 519.06C261.615 517.198 259.183 516.267 256.257 516.267ZM318.515 539.352V543H290.528V540.093L307.115 523.848C309.205 521.796 310.611 520.029 311.333 518.547C312.093 517.027 312.473 515.507 312.473 513.987C312.473 511.631 311.656 509.807 310.022 508.515C308.426 507.185 306.127 506.52 303.125 506.52C298.451 506.52 294.822 508.002 292.238 510.966L289.331 508.458C290.889 506.634 292.865 505.228 295.259 504.24C297.691 503.252 300.427 502.758 303.467 502.758C307.533 502.758 310.744 503.727 313.1 505.665C315.494 507.565 316.691 510.187 316.691 513.531C316.691 515.583 316.235 517.559 315.323 519.459C314.411 521.359 312.682 523.544 310.136 526.014L296.57 539.352H318.515ZM339.346 543.342C336.268 543.342 333.513 542.525 331.081 540.891C328.687 539.257 326.806 536.92 325.438 533.88C324.108 530.802 323.443 527.192 323.443 523.05C323.443 518.908 324.108 515.317 325.438 512.277C326.806 509.199 328.687 506.843 331.081 505.209C333.513 503.575 336.268 502.758 339.346 502.758C342.424 502.758 345.16 503.575 347.554 505.209C349.986 506.843 351.886 509.199 353.254 512.277C354.622 515.317 355.306 518.908 355.306 523.05C355.306 527.192 354.622 530.802 353.254 533.88C351.886 536.92 349.986 539.257 347.554 540.891C345.16 542.525 342.424 543.342 339.346 543.342ZM339.346 539.58C341.664 539.58 343.697 538.934 345.445 537.642C347.231 536.35 348.618 534.469 349.606 531.999C350.594 529.529 351.088 526.546 351.088 523.05C351.088 519.554 350.594 516.571 349.606 514.101C348.618 511.631 347.231 509.75 345.445 508.458C343.697 507.166 341.664 506.52 339.346 506.52C337.028 506.52 334.976 507.166 333.19 508.458C331.442 509.75 330.074 511.631 329.086 514.101C328.098 516.571 327.604 519.554 327.604 523.05C327.604 526.546 328.098 529.529 329.086 531.999C330.074 534.469 331.442 536.35 333.19 537.642C334.976 538.934 337.028 539.58 339.346 539.58ZM377.086 543.342C374.008 543.342 371.253 542.525 368.821 540.891C366.427 539.257 364.546 536.92 363.178 533.88C361.848 530.802 361.183 527.192 361.183 523.05C361.183 518.908 361.848 515.317 363.178 512.277C364.546 509.199 366.427 506.843 368.821 505.209C371.253 503.575 374.008 502.758 377.086 502.758C380.164 502.758 382.9 503.575 385.294 505.209C387.726 506.843 389.626 509.199 390.994 512.277C392.362 515.317 393.046 518.908 393.046 523.05C393.046 527.192 392.362 530.802 390.994 533.88C389.626 536.92 387.726 539.257 385.294 540.891C382.9 542.525 380.164 543.342 377.086 543.342ZM377.086 539.58C379.404 539.58 381.437 538.934 383.185 537.642C384.971 536.35 386.358 534.469 387.346 531.999C388.334 529.529 388.828 526.546 388.828 523.05C388.828 519.554 388.334 516.571 387.346 514.101C386.358 511.631 384.971 509.75 383.185 508.458C381.437 507.166 379.404 506.52 377.086 506.52C374.768 506.52 372.716 507.166 370.93 508.458C369.182 509.75 367.814 511.631 366.826 514.101C365.838 516.571 365.344 519.554 365.344 523.05C365.344 526.546 365.838 529.529 366.826 531.999C367.814 534.469 369.182 536.35 370.93 537.642C372.716 538.934 374.768 539.58 377.086 539.58ZM411.349 502.758C416.631 502.758 420.678 504.506 423.49 508.002C426.302 511.46 427.708 516.362 427.708 522.708C427.708 527.154 426.948 530.916 425.428 533.994C423.908 537.072 421.78 539.409 419.044 541.005C416.308 542.563 413.116 543.342 409.468 543.342C405.516 543.342 402.362 542.62 400.006 541.176L401.659 537.87C403.559 539.124 406.143 539.751 409.411 539.751C413.819 539.751 417.277 538.364 419.785 535.59C422.293 532.778 423.547 528.712 423.547 523.392C423.547 522.404 423.49 521.321 423.376 520.143C422.388 522.309 420.811 524 418.645 525.216C416.479 526.394 413.99 526.983 411.178 526.983C408.556 526.983 406.219 526.489 404.167 525.501C402.153 524.513 400.576 523.126 399.436 521.34C398.296 519.516 397.726 517.407 397.726 515.013C397.726 512.581 398.315 510.434 399.493 508.572C400.671 506.71 402.286 505.285 404.338 504.297C406.428 503.271 408.765 502.758 411.349 502.758ZM411.805 523.506C413.819 523.506 415.586 523.126 417.106 522.366C418.664 521.606 419.88 520.561 420.754 519.231C421.628 517.901 422.065 516.419 422.065 514.785C422.065 513.265 421.647 511.859 420.811 510.567C420.013 509.275 418.816 508.23 417.22 507.432C415.624 506.634 413.724 506.235 411.52 506.235C408.632 506.235 406.276 507.033 404.452 508.629C402.666 510.187 401.773 512.277 401.773 514.899C401.773 517.521 402.666 519.611 404.452 521.169C406.276 522.727 408.727 523.506 411.805 523.506Z" fill="white" fill-opacity="0.65"/>
</svg>